<mxfile host="Electron" agent="Mozilla/5.0 (X11; Linux x86_64) AppleWebKit/537.36 (KHTML, like Gecko) draw.io/26.0.4 Chrome/128.0.6613.186 Electron/32.2.5 Safari/537.36" version="26.0.4">
  <diagram name="Page-1" id="UKTJN4zQqLcPzbux8fwj">
    <mxGraphModel dx="1114" dy="1198" grid="1" gridSize="10" guides="1" tooltips="1" connect="1" arrows="1" fold="1" page="1" pageScale="1" pageWidth="850" pageHeight="1100" math="0" shadow="0">
      <root>
        <mxCell id="0" />
        <mxCell id="1" parent="0" />
        <mxCell id="h3XxwGvaKFFNgDDKkP51-29" value="&amp;nbsp;continuous replication&amp;nbsp;" style="edgeStyle=orthogonalEdgeStyle;rounded=0;orthogonalLoop=1;jettySize=auto;html=1;entryX=0;entryY=0.5;entryDx=0;entryDy=0;" edge="1" parent="1" source="h3XxwGvaKFFNgDDKkP51-1" target="h3XxwGvaKFFNgDDKkP51-13">
          <mxGeometry relative="1" as="geometry" />
        </mxCell>
        <mxCell id="h3XxwGvaKFFNgDDKkP51-1" value="Corporate data center / Any cloud" style="points=[[0,0],[0.25,0],[0.5,0],[0.75,0],[1,0],[1,0.25],[1,0.5],[1,0.75],[1,1],[0.75,1],[0.5,1],[0.25,1],[0,1],[0,0.75],[0,0.5],[0,0.25]];outlineConnect=0;gradientColor=none;html=1;whiteSpace=wrap;fontSize=12;fontStyle=0;container=1;pointerEvents=0;collapsible=0;recursiveResize=0;shape=mxgraph.aws4.group;grIcon=mxgraph.aws4.group_corporate_data_center;strokeColor=#7D8998;fillColor=none;verticalAlign=top;align=left;spacingLeft=30;fontColor=#5A6C86;dashed=0;" vertex="1" parent="1">
          <mxGeometry x="425" y="434" width="320" height="306" as="geometry" />
        </mxCell>
        <mxCell id="h3XxwGvaKFFNgDDKkP51-12" style="edgeStyle=orthogonalEdgeStyle;rounded=0;orthogonalLoop=1;jettySize=auto;html=1;" edge="1" parent="h3XxwGvaKFFNgDDKkP51-1" source="h3XxwGvaKFFNgDDKkP51-6" target="h3XxwGvaKFFNgDDKkP51-3">
          <mxGeometry relative="1" as="geometry">
            <Array as="points">
              <mxPoint x="170" y="254" />
              <mxPoint x="170" y="164" />
            </Array>
          </mxGeometry>
        </mxCell>
        <mxCell id="h3XxwGvaKFFNgDDKkP51-6" value="DB" style="sketch=0;outlineConnect=0;fontColor=#232F3E;gradientColor=none;fillColor=#232F3D;strokeColor=none;dashed=0;verticalLabelPosition=middle;verticalAlign=middle;align=right;html=1;fontSize=12;fontStyle=0;aspect=fixed;pointerEvents=1;shape=mxgraph.aws4.client;labelPosition=left;spacingRight=5;" vertex="1" parent="h3XxwGvaKFFNgDDKkP51-1">
          <mxGeometry x="50" y="216" width="78" height="76" as="geometry" />
        </mxCell>
        <mxCell id="h3XxwGvaKFFNgDDKkP51-10" style="edgeStyle=orthogonalEdgeStyle;rounded=0;orthogonalLoop=1;jettySize=auto;html=1;" edge="1" parent="h3XxwGvaKFFNgDDKkP51-1" source="h3XxwGvaKFFNgDDKkP51-5" target="h3XxwGvaKFFNgDDKkP51-3">
          <mxGeometry relative="1" as="geometry" />
        </mxCell>
        <mxCell id="h3XxwGvaKFFNgDDKkP51-5" value="Apps" style="sketch=0;outlineConnect=0;fontColor=#232F3E;gradientColor=none;fillColor=#232F3D;strokeColor=none;dashed=0;verticalLabelPosition=middle;verticalAlign=middle;align=right;html=1;fontSize=12;fontStyle=0;aspect=fixed;pointerEvents=1;shape=mxgraph.aws4.client;labelPosition=left;spacingRight=5;" vertex="1" parent="h3XxwGvaKFFNgDDKkP51-1">
          <mxGeometry x="50" y="126" width="78" height="76" as="geometry" />
        </mxCell>
        <mxCell id="h3XxwGvaKFFNgDDKkP51-9" style="edgeStyle=orthogonalEdgeStyle;rounded=0;orthogonalLoop=1;jettySize=auto;html=1;" edge="1" parent="h3XxwGvaKFFNgDDKkP51-1" source="h3XxwGvaKFFNgDDKkP51-4" target="h3XxwGvaKFFNgDDKkP51-3">
          <mxGeometry relative="1" as="geometry">
            <Array as="points">
              <mxPoint x="170" y="74" />
              <mxPoint x="170" y="164" />
            </Array>
          </mxGeometry>
        </mxCell>
        <mxCell id="h3XxwGvaKFFNgDDKkP51-4" value="OS" style="sketch=0;outlineConnect=0;fontColor=#232F3E;gradientColor=none;fillColor=#232F3D;strokeColor=none;dashed=0;verticalLabelPosition=middle;verticalAlign=middle;align=right;html=1;fontSize=12;fontStyle=0;aspect=fixed;pointerEvents=1;shape=mxgraph.aws4.client;labelPosition=left;spacingRight=5;" vertex="1" parent="h3XxwGvaKFFNgDDKkP51-1">
          <mxGeometry x="50" y="36" width="78" height="76" as="geometry" />
        </mxCell>
        <mxCell id="h3XxwGvaKFFNgDDKkP51-3" value="AWS Replication&lt;div&gt;Agent&lt;/div&gt;" style="sketch=0;outlineConnect=0;fontColor=#232F3E;gradientColor=none;fillColor=#232F3D;strokeColor=none;dashed=0;verticalLabelPosition=bottom;verticalAlign=top;align=center;html=1;fontSize=12;fontStyle=0;aspect=fixed;pointerEvents=1;shape=mxgraph.aws4.traditional_server;" vertex="1" parent="h3XxwGvaKFFNgDDKkP51-1">
          <mxGeometry x="240" y="125" width="45" height="78" as="geometry" />
        </mxCell>
        <mxCell id="h3XxwGvaKFFNgDDKkP51-2" value="AWS Cloud" style="points=[[0,0],[0.25,0],[0.5,0],[0.75,0],[1,0],[1,0.25],[1,0.5],[1,0.75],[1,1],[0.75,1],[0.5,1],[0.25,1],[0,1],[0,0.75],[0,0.5],[0,0.25]];outlineConnect=0;gradientColor=none;html=1;whiteSpace=wrap;fontSize=12;fontStyle=0;container=1;pointerEvents=0;collapsible=0;recursiveResize=0;shape=mxgraph.aws4.group;grIcon=mxgraph.aws4.group_aws_cloud_alt;strokeColor=#232F3E;fillColor=none;verticalAlign=top;align=left;spacingLeft=30;fontColor=#232F3E;dashed=0;" vertex="1" parent="1">
          <mxGeometry x="930" y="330" width="490" height="400" as="geometry" />
        </mxCell>
        <mxCell id="h3XxwGvaKFFNgDDKkP51-13" value="Staging" style="rounded=0;whiteSpace=wrap;html=1;fillColor=none;dashed=1;verticalAlign=top;" vertex="1" parent="h3XxwGvaKFFNgDDKkP51-2">
          <mxGeometry x="20" y="132" width="180" height="250" as="geometry" />
        </mxCell>
        <mxCell id="h3XxwGvaKFFNgDDKkP51-17" style="edgeStyle=orthogonalEdgeStyle;rounded=0;orthogonalLoop=1;jettySize=auto;html=1;" edge="1" parent="h3XxwGvaKFFNgDDKkP51-2" source="h3XxwGvaKFFNgDDKkP51-14" target="h3XxwGvaKFFNgDDKkP51-15">
          <mxGeometry relative="1" as="geometry" />
        </mxCell>
        <mxCell id="h3XxwGvaKFFNgDDKkP51-18" style="edgeStyle=orthogonalEdgeStyle;rounded=0;orthogonalLoop=1;jettySize=auto;html=1;" edge="1" parent="h3XxwGvaKFFNgDDKkP51-2" source="h3XxwGvaKFFNgDDKkP51-14" target="h3XxwGvaKFFNgDDKkP51-16">
          <mxGeometry relative="1" as="geometry" />
        </mxCell>
        <mxCell id="h3XxwGvaKFFNgDDKkP51-14" value="" style="sketch=0;outlineConnect=0;fontColor=#232F3E;gradientColor=none;fillColor=#ED7100;strokeColor=none;dashed=0;verticalLabelPosition=bottom;verticalAlign=top;align=center;html=1;fontSize=12;fontStyle=0;aspect=fixed;pointerEvents=1;shape=mxgraph.aws4.instance2;" vertex="1" parent="h3XxwGvaKFFNgDDKkP51-2">
          <mxGeometry x="30" y="218" width="48" height="48" as="geometry" />
        </mxCell>
        <mxCell id="h3XxwGvaKFFNgDDKkP51-15" value="" style="sketch=0;outlineConnect=0;fontColor=#232F3E;gradientColor=none;fillColor=#7AA116;strokeColor=none;dashed=0;verticalLabelPosition=bottom;verticalAlign=top;align=center;html=1;fontSize=12;fontStyle=0;aspect=fixed;pointerEvents=1;shape=mxgraph.aws4.volume;" vertex="1" parent="h3XxwGvaKFFNgDDKkP51-2">
          <mxGeometry x="128" y="158" width="62" height="78" as="geometry" />
        </mxCell>
        <mxCell id="h3XxwGvaKFFNgDDKkP51-16" value="" style="sketch=0;outlineConnect=0;fontColor=#232F3E;gradientColor=none;fillColor=#7AA116;strokeColor=none;dashed=0;verticalLabelPosition=bottom;verticalAlign=top;align=center;html=1;fontSize=12;fontStyle=0;aspect=fixed;pointerEvents=1;shape=mxgraph.aws4.volume;" vertex="1" parent="h3XxwGvaKFFNgDDKkP51-2">
          <mxGeometry x="128" y="248" width="62" height="78" as="geometry" />
        </mxCell>
        <mxCell id="h3XxwGvaKFFNgDDKkP51-20" value="Low-cost EC2 instances&lt;div&gt;&amp;amp; EBS volumes&lt;/div&gt;" style="text;html=1;align=center;verticalAlign=middle;resizable=0;points=[];autosize=1;strokeColor=none;fillColor=none;fontStyle=1" vertex="1" parent="h3XxwGvaKFFNgDDKkP51-2">
          <mxGeometry x="35" y="338" width="150" height="40" as="geometry" />
        </mxCell>
        <mxCell id="h3XxwGvaKFFNgDDKkP51-21" value="Production" style="rounded=0;whiteSpace=wrap;html=1;fillColor=none;dashed=1;verticalAlign=top;" vertex="1" parent="h3XxwGvaKFFNgDDKkP51-2">
          <mxGeometry x="290" y="132" width="180" height="250" as="geometry" />
        </mxCell>
        <mxCell id="h3XxwGvaKFFNgDDKkP51-22" style="edgeStyle=orthogonalEdgeStyle;rounded=0;orthogonalLoop=1;jettySize=auto;html=1;" edge="1" parent="h3XxwGvaKFFNgDDKkP51-2" source="h3XxwGvaKFFNgDDKkP51-24" target="h3XxwGvaKFFNgDDKkP51-25">
          <mxGeometry relative="1" as="geometry" />
        </mxCell>
        <mxCell id="h3XxwGvaKFFNgDDKkP51-23" style="edgeStyle=orthogonalEdgeStyle;rounded=0;orthogonalLoop=1;jettySize=auto;html=1;" edge="1" parent="h3XxwGvaKFFNgDDKkP51-2" source="h3XxwGvaKFFNgDDKkP51-24" target="h3XxwGvaKFFNgDDKkP51-26">
          <mxGeometry relative="1" as="geometry" />
        </mxCell>
        <mxCell id="h3XxwGvaKFFNgDDKkP51-24" value="" style="sketch=0;outlineConnect=0;fontColor=#232F3E;gradientColor=none;fillColor=#ED7100;strokeColor=none;dashed=0;verticalLabelPosition=bottom;verticalAlign=top;align=center;html=1;fontSize=12;fontStyle=0;aspect=fixed;pointerEvents=1;shape=mxgraph.aws4.instance2;" vertex="1" parent="h3XxwGvaKFFNgDDKkP51-2">
          <mxGeometry x="300" y="220" width="48" height="48" as="geometry" />
        </mxCell>
        <mxCell id="h3XxwGvaKFFNgDDKkP51-25" value="" style="sketch=0;outlineConnect=0;fontColor=#232F3E;gradientColor=none;fillColor=#7AA116;strokeColor=none;dashed=0;verticalLabelPosition=bottom;verticalAlign=top;align=center;html=1;fontSize=12;fontStyle=0;aspect=fixed;pointerEvents=1;shape=mxgraph.aws4.volume;" vertex="1" parent="h3XxwGvaKFFNgDDKkP51-2">
          <mxGeometry x="398" y="160" width="62" height="78" as="geometry" />
        </mxCell>
        <mxCell id="h3XxwGvaKFFNgDDKkP51-26" value="" style="sketch=0;outlineConnect=0;fontColor=#232F3E;gradientColor=none;fillColor=#7AA116;strokeColor=none;dashed=0;verticalLabelPosition=bottom;verticalAlign=top;align=center;html=1;fontSize=12;fontStyle=0;aspect=fixed;pointerEvents=1;shape=mxgraph.aws4.volume;" vertex="1" parent="h3XxwGvaKFFNgDDKkP51-2">
          <mxGeometry x="398" y="250" width="62" height="78" as="geometry" />
        </mxCell>
        <mxCell id="h3XxwGvaKFFNgDDKkP51-27" value="Target EC2 instances&lt;div&gt;&amp;amp; EBS volumes&lt;/div&gt;" style="text;html=1;align=center;verticalAlign=middle;resizable=0;points=[];autosize=1;strokeColor=none;fillColor=none;fontStyle=1" vertex="1" parent="h3XxwGvaKFFNgDDKkP51-2">
          <mxGeometry x="310" y="340" width="140" height="40" as="geometry" />
        </mxCell>
        <mxCell id="h3XxwGvaKFFNgDDKkP51-28" value="&amp;nbsp;cutover&amp;nbsp;" style="edgeStyle=orthogonalEdgeStyle;rounded=0;orthogonalLoop=1;jettySize=auto;html=1;entryX=0;entryY=0.5;entryDx=0;entryDy=0;" edge="1" parent="h3XxwGvaKFFNgDDKkP51-2" source="h3XxwGvaKFFNgDDKkP51-13" target="h3XxwGvaKFFNgDDKkP51-21">
          <mxGeometry relative="1" as="geometry" />
        </mxCell>
        <mxCell id="h3XxwGvaKFFNgDDKkP51-30" value="AWS Application Migration Service (MGN)" style="sketch=0;points=[[0,0,0],[0.25,0,0],[0.5,0,0],[0.75,0,0],[1,0,0],[0,1,0],[0.25,1,0],[0.5,1,0],[0.75,1,0],[1,1,0],[0,0.25,0],[0,0.5,0],[0,0.75,0],[1,0.25,0],[1,0.5,0],[1,0.75,0]];outlineConnect=0;fontColor=#232F3E;fillColor=#01A88D;strokeColor=#ffffff;dashed=0;verticalLabelPosition=bottom;verticalAlign=top;align=center;html=1;fontSize=12;fontStyle=0;aspect=fixed;shape=mxgraph.aws4.resourceIcon;resIcon=mxgraph.aws4.cloudendure_migration;" vertex="1" parent="h3XxwGvaKFFNgDDKkP51-2">
          <mxGeometry x="206" y="20" width="78" height="78" as="geometry" />
        </mxCell>
      </root>
    </mxGraphModel>
  </diagram>
</mxfile>
